<svg version="1.0" xmlns="http://www.w3.org/2000/svg" width="558.000000pt" height="613.000000pt" viewBox="0 0 558.000000 613.000000" preserveAspectRatio="xMidYMid meet">
    <g transform="translate(0.000000,613.000000) scale(0.100000,-0.100000)" fill="#FFFFFF" stroke="none">
        <path id="logo" d="M1961 5599 c-46 -28 -67 -55 -91 -117 -55 -143 -77 -483 -60 -920 10
        -268 32 -624 46 -753 4 -34 2 -59 -4 -63 -15 -9 -195 -60 -692 -195 -859 -235
        -824 -223 -887 -284 -40 -37 -49 -74 -29 -121 26 -63 67 -105 185 -195 468
        -352 1038 -638 1516 -761 l110 -28 46 -269 c114 -657 221 -1089 326 -1311 44
        -94 112 -166 171 -182 73 -19 140 5 190 68 35 44 35 43 141 342 117 330 292
        757 434 1063 l46 97 166 0 c171 0 544 16 689 29 46 4 -28 6 -174 3 -242 -4
        -635 10 -648 23 -10 10 406 827 437 858 6 6 41 -14 103 -60 244 -183 459 -326
        773 -513 105 -62 196 -118 203 -123 6 -5 12 -7 12 -3 0 3 -59 44 -130 91 -303
        199 -722 510 -878 651 l-42 39 115 199 c271 467 585 973 885 1421 124 186 253
        400 293 484 47 100 53 166 22 220 -34 59 -68 76 -143 76 -84 -1 -141 -29 -337
        -164 -509 -351 -1058 -668 -1614 -931 -165 -78 -216 -98 -223 -88 -85 127
        -282 493 -489 913 -187 379 -237 458 -314 502 -51 29 -109 29 -154 2z m160
        -370 c41 -29 93 -109 189 -289 164 -308 391 -700 457 -788 14 -19 21 -37 17
        -42 -19 -17 -617 -260 -678 -276 -32 -8 -30 -18 -56 281 -34 398 -40 509 -40
        760 0 253 8 316 42 353 26 27 32 27 69 1z m2457 -541 c33 -33 -11 -142 -144
        -351 -342 -535 -469 -742 -639 -1039 -43 -76 -81 -138 -85 -138 -11 0 -195
        193 -281 295 -93 110 -234 298 -317 422 l-62 92 58 26 c31 15 91 42 132 60
        212 92 641 311 920 470 160 91 257 141 310 161 45 16 93 17 108 2z m-1567
        -890 c145 -197 267 -338 464 -535 l192 -191 -85 -154 c-46 -84 -165 -315 -263
        -514 l-179 -361 -113 14 c-234 28 -714 122 -727 143 -15 25 -141 900 -195
        1351 l-6 57 83 27 c108 36 473 172 613 229 61 25 115 45 121 46 6 0 49 -51 95
        -112z m-1127 -310 c3 -24 15 -133 27 -243 20 -195 114 -905 125 -952 4 -13 3
        -23 -2 -23 -10 0 -198 73 -289 112 -292 126 -576 275 -825 432 -184 116 -340
        250 -340 294 0 64 114 105 845 302 127 34 273 74 325 90 130 38 128 38 134
        -12z m636 -1422 c297 -50 327 -53 333 -30 4 17 5 16 6 -2 1 -19 9 -22 84 -28
        45 -4 103 -9 128 -13 l47 -5 -45 -102 c-62 -139 -203 -476 -203 -484 0 -4 -7
        -20 -16 -37 -17 -32 -129 -327 -185 -487 -18 -54 -36 -98 -40 -98 -18 0 -125
        379 -190 675 -32 146 -128 645 -125 645 1 0 93 -15 206 -34z"/>
        <path id="star1" d="M4877 3313 c-2 -5 -10 -46 -17 -92 -12 -79 -16 -87 -73 -158 -32 -41
        -58 -76 -55 -78 2 -2 37 -9 78 -15 95 -14 101 -16 185 -83 38 -31 70 -55 71
        -54 2 1 9 44 18 96 14 91 16 94 76 167 40 48 57 76 48 78 -7 3 -50 10 -95 16
        -77 12 -85 15 -154 71 -77 64 -76 63 -82 52z"/>
        <path id="star2" d="M842 1603 c3 -10 15 -59 28 -110 l24 -92 -27 -106 c-16 -59 -27 -109
        -25 -111 2 -2 51 10 108 25 l104 29 110 -29 c60 -15 111 -27 113 -26 1 2 -11
        51 -28 110 l-31 107 30 107 c17 59 29 109 27 111 -1 2 -52 -10 -111 -26 l-109
        -29 -100 28 c-119 34 -119 34 -113 12z"/>
        <path id="star3" d="M4375 1057 l-70 -122 -122 -70 c-67 -38 -119 -73 -115 -77 4 -3 59
        -36 122 -72 l115 -65 69 -122 c80 -140 64 -141 152 13 61 109 58 106 202 190
        57 33 102 61 100 62 -1 2 -56 34 -121 71 -117 67 -118 68 -160 141 -23 41 -56
        96 -72 124 l-30 49 -70 -122z"/>
    </g>
</svg>
