<?xml version="1.0" encoding="iso-8859-1"?>
<!-- Generator: Adobe Illustrator 19.0.0, SVG Export Plug-In . SVG Version: 6.00 Build 0)  -->
<svg version="1.1" id="Capa_1" xmlns="http://www.w3.org/2000/svg" xmlns:xlink="http://www.w3.org/1999/xlink" x="0px" y="0px"
	 viewBox="0 0 512.009 512.009" style="enable-background:new 0 0 512.009 512.009;" xml:space="preserve">
<g transform="matrix(1.25 0 0 -1.25 0 45)">
	<g>
		<g>
			<path style="fill:#FFAC33;" d="M328.138-164.682c-11.23-11.878-18.58-34.896-16.35-51.12l10.138-73.296
				c2.241-16.225-7.976-23.734-22.71-16.703l-66.571,31.812c-14.734,7.054-38.775,6.952-53.464-0.205l-66.287-32.336
				c-14.689-7.157-24.963,0.307-22.847,16.521l9.591,73.387c2.116,16.225-5.404,39.185-16.725,50.984l-51.12,53.339
				c-11.332,11.787-7.464,23.905,8.59,26.908l72.476,13.505c16.043,2.992,35.453,17.283,43.156,31.733l34.702,65.274
				c7.691,14.461,20.355,14.495,28.149,0.102l35.203-64.99c7.805-14.404,27.318-28.524,43.406-31.391l72.567-12.971
				c16.065-2.879,20.025-14.95,8.806-26.852L328.138-164.682z"/>
			<g>
				<path style="fill:#FFD983;" d="M111.312,11.184c11.639-16.077,27.83-55.945,19.536-61.975
					c-8.283-6.042-41.04,21.732-52.679,37.808C66.54,3.095,67.53,17.374,76.678,24.041C85.825,30.72,99.672,27.261,111.312,11.184"
					/>
				<path style="fill:#FFD983;" d="M331.438-12.982c-11.639-16.077-44.385-43.861-52.69-37.797
					c-8.283,6.03,7.908,45.887,19.558,61.952c11.639,16.088,25.463,19.558,34.623,12.868
					C342.064,17.385,343.054,3.095,331.438-12.982"/>
				<path style="fill:#FFD983;" d="M189.158-342.778c-0.011,19.866,10.217,61.679,20.491,61.679
					c10.217,0,20.457-41.813,20.446-61.668c0-19.877-9.148-30.857-20.48-30.834C198.306-373.624,189.158-362.655,189.158-342.778"/>
				<path style="fill:#FFD983;" d="M373.24-237.397c-18.83,6.133-55.273,28.82-52.099,38.628c3.152,9.751,45.932,6.61,64.728,0.466
					c18.842-6.155,26.419-18.273,22.903-29.082C405.279-238.183,392.07-243.541,373.24-237.397"/>
				<path style="fill:#FFD983;" d="M23.703-198.315c18.83,6.144,61.599,9.296,64.785-0.501c3.14-9.751-33.314-32.461-52.122-38.593
					c-18.819-6.144-32.063-0.796-35.533,10.012C-2.671-216.587,4.861-204.47,23.703-198.315"/>
			</g>
		</g>
	</g>
</g>
<g>
</g>
<g>
</g>
<g>
</g>
<g>
</g>
<g>
</g>
<g>
</g>
<g>
</g>
<g>
</g>
<g>
</g>
<g>
</g>
<g>
</g>
<g>
</g>
<g>
</g>
<g>
</g>
<g>
</g>
</svg>
